<mxfile host="65bd71144e">
    <diagram id="zLo-goX1pcKXRP1L5zoE" name="Page-1">
        <mxGraphModel dx="2130" dy="1206" grid="0" gridSize="10" guides="1" tooltips="1" connect="1" arrows="1" fold="1" page="1" pageScale="1" pageWidth="2339" pageHeight="3300" background="#FFFFFF" math="0" shadow="1">
            <root>
                <mxCell id="0"/>
                <mxCell id="1" parent="0"/>
                <mxCell id="113" value="" style="rounded=0;whiteSpace=wrap;html=1;fontFamily=Courier New;fontSize=14;fontColor=#000000;strokeColor=#000000;fillColor=#FFFFFF;" parent="1" vertex="1">
                    <mxGeometry x="943" y="1274" width="765" height="493" as="geometry"/>
                </mxCell>
                <mxCell id="19" value="" style="rounded=0;whiteSpace=wrap;html=1;strokeColor=#000000;fillColor=#FFFFFF;" parent="1" vertex="1">
                    <mxGeometry x="982" y="467" width="664" height="618" as="geometry"/>
                </mxCell>
                <mxCell id="2" value="&lt;pre&gt;&lt;b&gt;&lt;font style=&quot;font-size: 15px&quot; color=&quot;#000000&quot; face=&quot;Verdana&quot;&gt;Environments&lt;/font&gt;&lt;/b&gt;&lt;/pre&gt;" style="ellipse;whiteSpace=wrap;html=1;aspect=fixed;fillColor=#F0F0F0;strokeColor=#000000;dashed=1;" parent="1" vertex="1">
                    <mxGeometry x="1079" y="525" width="470" height="470" as="geometry"/>
                </mxCell>
                <mxCell id="4" value="&lt;font color=&quot;#000000&quot;&gt;Tentacles&lt;/font&gt;" style="ellipse;whiteSpace=wrap;html=1;aspect=fixed;dashed=1;strokeColor=#000000;fillColor=#FFFFFF;" parent="1" vertex="1">
                    <mxGeometry x="1299" y="669" width="80" height="80" as="geometry"/>
                </mxCell>
                <mxCell id="5" value="&lt;font color=&quot;#000000&quot;&gt;Mappers&lt;/font&gt;" style="ellipse;whiteSpace=wrap;html=1;aspect=fixed;dashed=1;strokeColor=#000000;fillColor=#FFFFFF;" parent="1" vertex="1">
                    <mxGeometry x="1249" y="775" width="60" height="60" as="geometry"/>
                </mxCell>
                <mxCell id="8" value="&lt;font color=&quot;#000000&quot;&gt;Placement&lt;/font&gt;" style="ellipse;whiteSpace=wrap;html=1;aspect=fixed;dashed=1;strokeColor=#000000;fillColor=#FFFFFF;" parent="1" vertex="1">
                    <mxGeometry x="1339" y="765" width="100" height="100" as="geometry"/>
                </mxCell>
                <mxCell id="20" value="&lt;font color=&quot;#000000&quot; size=&quot;1&quot;&gt;&lt;b style=&quot;font-size: 13px&quot;&gt;&lt;u&gt;Core Cluster&lt;/u&gt;&lt;/b&gt;&lt;/font&gt;" style="text;html=1;align=center;verticalAlign=middle;resizable=0;points=[];autosize=1;strokeColor=none;" parent="1" vertex="1">
                    <mxGeometry x="1549" y="467" width="90" height="20" as="geometry"/>
                </mxCell>
                <mxCell id="24" value="" style="group" parent="1" vertex="1" connectable="0">
                    <mxGeometry x="1264" y="932" width="110" height="119" as="geometry"/>
                </mxCell>
                <mxCell id="7" value="&lt;font color=&quot;#000000&quot; size=&quot;1&quot;&gt;&lt;b style=&quot;font-size: 15px&quot;&gt;Core&lt;/b&gt;&lt;/font&gt;" style="ellipse;whiteSpace=wrap;html=1;aspect=fixed;strokeColor=#000000;fillColor=#FFFFFF;" parent="24" vertex="1">
                    <mxGeometry width="110" height="110" as="geometry"/>
                </mxCell>
                <mxCell id="9" value="&lt;span style=&quot;color: rgb(0 , 0 , 0) ; background-color: rgb(255 , 255 , 255)&quot;&gt;proxy&lt;/span&gt;" style="rounded=1;whiteSpace=wrap;html=1;strokeColor=#000000;fillColor=#FFFFFF;" parent="24" vertex="1">
                    <mxGeometry x="0.8800000000001091" y="89" width="108.25" height="30" as="geometry"/>
                </mxCell>
                <mxCell id="22" value="&lt;font color=&quot;#000000&quot;&gt;Actors&lt;/font&gt;" style="rounded=1;whiteSpace=wrap;html=1;strokeColor=#000000;fillColor=#FFFFFF;dashed=1;" parent="24" vertex="1">
                    <mxGeometry x="30" y="19" width="50" height="21" as="geometry"/>
                </mxCell>
                <mxCell id="25" value="" style="group;rotation=-110;" parent="1" vertex="1" connectable="0">
                    <mxGeometry x="1479" y="625" width="110" height="119" as="geometry"/>
                </mxCell>
                <mxCell id="26" value="&lt;font color=&quot;#000000&quot; size=&quot;1&quot;&gt;&lt;b style=&quot;font-size: 15px&quot;&gt;Core&lt;/b&gt;&lt;/font&gt;" style="ellipse;whiteSpace=wrap;html=1;aspect=fixed;strokeColor=#000000;fillColor=#FFFFFF;rotation=-110;" parent="25" vertex="1">
                    <mxGeometry x="-3" y="6" width="110" height="110" as="geometry"/>
                </mxCell>
                <mxCell id="27" value="&lt;span style=&quot;color: rgb(0 , 0 , 0) ; background-color: rgb(255 , 255 , 255)&quot;&gt;proxy&lt;/span&gt;" style="rounded=1;whiteSpace=wrap;html=1;strokeColor=#000000;fillColor=#FFFFFF;rotation=-110;" parent="25" vertex="1">
                    <mxGeometry x="43" y="29" width="108.25" height="30" as="geometry"/>
                </mxCell>
                <mxCell id="28" value="&lt;font color=&quot;#000000&quot;&gt;Actors&lt;/font&gt;" style="rounded=1;whiteSpace=wrap;html=1;strokeColor=#000000;fillColor=#FFFFFF;dashed=1;rotation=-110;" parent="25" vertex="1">
                    <mxGeometry x="2" y="59" width="50" height="21" as="geometry"/>
                </mxCell>
                <mxCell id="30" value="&lt;font color=&quot;#000000&quot; size=&quot;1&quot;&gt;&lt;b style=&quot;font-size: 15px&quot;&gt;Core&lt;/b&gt;&lt;/font&gt;" style="ellipse;whiteSpace=wrap;html=1;aspect=fixed;strokeColor=#000000;fillColor=#FFFFFF;rotation=115;" parent="1" vertex="1">
                    <mxGeometry x="1052" y="605" width="110" height="110" as="geometry"/>
                </mxCell>
                <mxCell id="91" value="" style="group" parent="1" vertex="1" connectable="0">
                    <mxGeometry x="1029.656169777735" y="584.6068171005309" width="120.42551852966733" height="119.98836932366271" as="geometry"/>
                </mxCell>
                <mxCell id="31" value="&lt;span style=&quot;color: rgb(0 , 0 , 0) ; background-color: rgb(255 , 255 , 255)&quot;&gt;proxy&lt;/span&gt;" style="rounded=1;whiteSpace=wrap;html=1;strokeColor=#000000;fillColor=#FFFFFF;rotation=115;" parent="91" vertex="1">
                    <mxGeometry x="-17.65616977773493" y="40.39318289946914" width="108.25" height="30" as="geometry"/>
                </mxCell>
                <mxCell id="32" value="&lt;font color=&quot;#000000&quot;&gt;Actors&lt;/font&gt;" style="rounded=1;whiteSpace=wrap;html=1;strokeColor=#000000;fillColor=#FFFFFF;dashed=1;rotation=115;" parent="91" vertex="1">
                    <mxGeometry x="75.34383022226507" y="82.39318289946914" width="50" height="21" as="geometry"/>
                </mxCell>
                <mxCell id="99" value="" style="group" parent="1" vertex="1" connectable="0">
                    <mxGeometry x="1029" y="1497" width="244" height="244" as="geometry"/>
                </mxCell>
                <mxCell id="93" value="" style="ellipse;whiteSpace=wrap;html=1;aspect=fixed;fontFamily=Courier New;fontSize=13;fontColor=#000000;strokeColor=#000000;fillColor=#F0F0F0;" parent="99" vertex="1">
                    <mxGeometry width="244" height="244" as="geometry"/>
                </mxCell>
                <mxCell id="94" value="&lt;span&gt;Environment&lt;/span&gt;" style="text;html=1;align=center;verticalAlign=middle;resizable=0;points=[];autosize=1;strokeColor=none;fillColor=none;fontSize=13;fontFamily=Courier New;fontColor=#000000;" parent="99" vertex="1">
                    <mxGeometry x="79" y="205.5" width="96" height="20" as="geometry"/>
                </mxCell>
                <mxCell id="95" value="" style="group" parent="99" vertex="1" connectable="0">
                    <mxGeometry x="69" y="62.5" width="110" height="119" as="geometry"/>
                </mxCell>
                <mxCell id="96" value="&lt;font color=&quot;#000000&quot; size=&quot;1&quot;&gt;&lt;b style=&quot;font-size: 15px&quot;&gt;Core&lt;/b&gt;&lt;/font&gt;" style="ellipse;whiteSpace=wrap;html=1;aspect=fixed;strokeColor=#000000;fillColor=#FFFFFF;" parent="95" vertex="1">
                    <mxGeometry width="110" height="110" as="geometry"/>
                </mxCell>
                <mxCell id="97" value="&lt;span style=&quot;color: rgb(0 , 0 , 0) ; background-color: rgb(255 , 255 , 255)&quot;&gt;proxy&lt;/span&gt;" style="rounded=1;whiteSpace=wrap;html=1;strokeColor=#000000;fillColor=#FFFFFF;" parent="95" vertex="1">
                    <mxGeometry x="0.8800000000001091" y="89" width="108.25" height="30" as="geometry"/>
                </mxCell>
                <mxCell id="98" value="&lt;font color=&quot;#000000&quot;&gt;Actors&lt;/font&gt;" style="rounded=1;whiteSpace=wrap;html=1;strokeColor=#000000;fillColor=#FFFFFF;dashed=1;" parent="95" vertex="1">
                    <mxGeometry x="30" y="19" width="50" height="21" as="geometry"/>
                </mxCell>
                <mxCell id="100" value="" style="group" parent="1" vertex="1" connectable="0">
                    <mxGeometry x="1377" y="1497" width="244" height="244" as="geometry"/>
                </mxCell>
                <mxCell id="101" value="" style="ellipse;whiteSpace=wrap;html=1;aspect=fixed;fontFamily=Courier New;fontSize=13;fontColor=#000000;strokeColor=#000000;fillColor=#F0F0F0;" parent="100" vertex="1">
                    <mxGeometry width="244" height="244" as="geometry"/>
                </mxCell>
                <mxCell id="102" value="&lt;span&gt;Environment&lt;/span&gt;" style="text;html=1;align=center;verticalAlign=middle;resizable=0;points=[];autosize=1;strokeColor=none;fillColor=none;fontSize=13;fontFamily=Courier New;fontColor=#000000;" parent="100" vertex="1">
                    <mxGeometry x="79" y="205.5" width="96" height="20" as="geometry"/>
                </mxCell>
                <mxCell id="103" value="" style="group" parent="100" vertex="1" connectable="0">
                    <mxGeometry x="69" y="62.5" width="110" height="119" as="geometry"/>
                </mxCell>
                <mxCell id="104" value="&lt;font color=&quot;#000000&quot; size=&quot;1&quot;&gt;&lt;b style=&quot;font-size: 15px&quot;&gt;Core&lt;/b&gt;&lt;/font&gt;" style="ellipse;whiteSpace=wrap;html=1;aspect=fixed;strokeColor=#000000;fillColor=#FFFFFF;" parent="103" vertex="1">
                    <mxGeometry width="110" height="110" as="geometry"/>
                </mxCell>
                <mxCell id="105" value="&lt;span style=&quot;color: rgb(0 , 0 , 0) ; background-color: rgb(255 , 255 , 255)&quot;&gt;proxy&lt;/span&gt;" style="rounded=1;whiteSpace=wrap;html=1;strokeColor=#000000;fillColor=#FFFFFF;" parent="103" vertex="1">
                    <mxGeometry x="0.8800000000001091" y="89" width="108.25" height="30" as="geometry"/>
                </mxCell>
                <mxCell id="106" value="&lt;font color=&quot;#000000&quot;&gt;Actors&lt;/font&gt;" style="rounded=1;whiteSpace=wrap;html=1;strokeColor=#000000;fillColor=#FFFFFF;dashed=1;" parent="103" vertex="1">
                    <mxGeometry x="30" y="19" width="50" height="21" as="geometry"/>
                </mxCell>
                <mxCell id="109" style="edgeStyle=orthogonalEdgeStyle;html=1;exitX=0.5;exitY=1;exitDx=0;exitDy=0;entryX=0.5;entryY=0;entryDx=0;entryDy=0;fontFamily=Courier New;fontSize=14;fontColor=#000000;strokeColor=#000000;" parent="1" source="107" target="93" edge="1">
                    <mxGeometry relative="1" as="geometry"/>
                </mxCell>
                <mxCell id="110" style="edgeStyle=orthogonalEdgeStyle;html=1;exitX=0.5;exitY=1;exitDx=0;exitDy=0;entryX=0.5;entryY=0;entryDx=0;entryDy=0;fontFamily=Courier New;fontSize=14;fontColor=#000000;strokeColor=#000000;" parent="1" source="107" target="101" edge="1">
                    <mxGeometry relative="1" as="geometry"/>
                </mxCell>
                <mxCell id="107" value="&lt;font style=&quot;font-size: 14px&quot;&gt;Metadata&lt;/font&gt;" style="rounded=0;whiteSpace=wrap;html=1;fontFamily=Courier New;fontSize=13;fontColor=#000000;strokeColor=#000000;fillColor=#FFFFFF;" parent="1" vertex="1">
                    <mxGeometry x="1047" y="1298" width="552" height="60" as="geometry"/>
                </mxCell>
                <mxCell id="111" value="pull" style="text;html=1;align=center;verticalAlign=middle;resizable=0;points=[];autosize=1;strokeColor=none;fillColor=none;fontSize=14;fontFamily=Courier New;fontColor=#000000;" parent="1" vertex="1">
                    <mxGeometry x="1229" y="1407" width="44" height="21" as="geometry"/>
                </mxCell>
                <mxCell id="112" value="pull" style="text;html=1;align=center;verticalAlign=middle;resizable=0;points=[];autosize=1;strokeColor=none;fillColor=none;fontSize=14;fontFamily=Courier New;fontColor=#000000;" parent="1" vertex="1">
                    <mxGeometry x="1378" y="1407" width="44" height="21" as="geometry"/>
                </mxCell>
            </root>
        </mxGraphModel>
    </diagram>
</mxfile>